<?xml version="1.0" encoding="utf-8"?>
<!-- Generator: Adobe Illustrator 21.0.0, SVG Export Plug-In . SVG Version: 6.00 Build 0)  -->
<svg version="1.1" id="Слой_1" xmlns="http://www.w3.org/2000/svg"  x="0px" y="0px"
	 width="35" height="35" viewBox="0 0 35 35" style="enable-background:new 0 0 35 35;" xml:space="preserve">
<style type="text/css">
	.st0{fill:#FFFFFF;}
</style>
<g>
	<path class="st0" d="M17.4,0C7.8,0,0,7.8,0,17.4s7.8,17.4,17.4,17.4s17.4-7.8,17.4-17.4S26.9,0,17.4,0z M17.4,33.7
		C8.3,33.7,1,26.4,1,17.4C1,8.3,8.3,1,17.4,1c9,0,16.4,7.3,16.4,16.4C33.7,26.4,26.4,33.7,17.4,33.7z"/>
	<path class="st0" d="M9,21.9l0.5,4.7l4.7-0.2l12.1-13.9L21.2,8L9,21.9z M12.4,24.2l9.2-10.5l1.3,1.2l-9.2,10.5L12.4,24.2z
		 M11.7,23.6l-1.6-1.4l9.2-10.6l1.6,1.4L11.7,23.6z M24.9,12.6l-1.3,1.5L20,10.9l1.3-1.5L24.9,12.6z"/>
</g>
</svg>
